<?xml version="1.0" encoding="UTF-8" standalone="no"?>
<!DOCTYPE svg PUBLIC "-//W3C//DTD SVG 1.1//EN"
 "http://www.w3.org/Graphics/SVG/1.1/DTD/svg11.dtd">
<!-- Generated by graphviz version 5.0.0 (20220707.1540)
 -->
<!-- Title: dependencies Pages: 1 -->
<svg width="208pt" height="247pt"
 viewBox="0.00 0.00 208.00 246.80" xmlns="http://www.w3.org/2000/svg" xmlns:xlink="http://www.w3.org/1999/xlink">
<g id="graph0" class="graph" transform="scale(1 1) rotate(0) translate(4 242.8)">
<title>dependencies</title>
<polygon fill="white" stroke="transparent" points="-4,4 -4,-242.8 204,-242.8 204,4 -4,4"/>
<text text-anchor="middle" x="100" y="-8.2" font-family="sans-serif" font-size="14.00">dependencies</text>
<g id="clust1" class="cluster">
<title>cluster_CommonModule</title>
<polygon fill="none" stroke="black" stroke-dasharray="1,5" points="8,-32.8 8,-230.8 192,-230.8 192,-32.8 8,-32.8"/>
</g>
<g id="clust4" class="cluster">
<title>cluster_CommonModule_exports</title>
<polygon fill="none" stroke="black" points="35,-170.8 35,-222.8 165,-222.8 165,-170.8 35,-170.8"/>
</g>
<g id="clust6" class="cluster">
<title>cluster_CommonModule_providers</title>
<polygon fill="none" stroke="black" points="16,-40.8 16,-92.8 184,-92.8 184,-40.8 16,-40.8"/>
</g>
<!-- CommonService  -->
<g id="node1" class="node">
<title>CommonService </title>
<polygon fill="#fb8072" stroke="black" points="156.6,-214.8 43.4,-214.8 43.4,-178.8 156.6,-178.8 156.6,-214.8"/>
<text text-anchor="middle" x="100" y="-192.6" font-family="Times,serif" font-size="14.00">CommonService </text>
</g>
<!-- CommonModule -->
<g id="node2" class="node">
<title>CommonModule</title>
<polygon fill="#8dd3c7" stroke="black" points="155.67,-149.8 152.67,-153.8 131.67,-153.8 128.67,-149.8 44.33,-149.8 44.33,-113.8 155.67,-113.8 155.67,-149.8"/>
<text text-anchor="middle" x="100" y="-127.6" font-family="Times,serif" font-size="14.00">CommonModule</text>
</g>
<!-- CommonModule&#45;&gt;CommonService  -->
<g id="edge1" class="edge">
<title>CommonModule&#45;&gt;CommonService </title>
<path fill="none" stroke="black" stroke-dasharray="5,2" d="M100,-149.91C100,-149.91 100,-168.79 100,-168.79"/>
<polygon fill="black" stroke="black" points="96.5,-168.79 100,-178.79 103.5,-168.79 96.5,-168.79"/>
</g>
<!-- CommonService -->
<g id="node3" class="node">
<title>CommonService</title>
<ellipse fill="#fdb462" stroke="black" cx="100" cy="-66.8" rx="75.89" ry="18"/>
<text text-anchor="middle" x="100" y="-62.6" font-family="Times,serif" font-size="14.00">CommonService</text>
</g>
<!-- CommonService&#45;&gt;CommonModule -->
<g id="edge2" class="edge">
<title>CommonService&#45;&gt;CommonModule</title>
<path fill="none" stroke="black" d="M100,-84.91C100,-84.91 100,-103.79 100,-103.79"/>
<polygon fill="black" stroke="black" points="96.5,-103.79 100,-113.79 103.5,-103.79 96.5,-103.79"/>
</g>
</g>
</svg>
