<?xml version="1.0" encoding="UTF-8" standalone="no"?>
<!DOCTYPE svg PUBLIC "-//W3C//DTD SVG 1.1//EN"
 "http://www.w3.org/Graphics/SVG/1.1/DTD/svg11.dtd">
<!-- Generated by graphviz version 5.0.0 (20220707.1540)
 -->
<!-- Title: dependencies Pages: 1 -->
<svg width="532pt" height="250pt"
 viewBox="0.00 0.00 532.00 249.80" xmlns="http://www.w3.org/2000/svg" xmlns:xlink="http://www.w3.org/1999/xlink">
<g id="graph0" class="graph" transform="scale(1 1) rotate(0) translate(4 245.8)">
<title>dependencies</title>
<polygon fill="white" stroke="transparent" points="-4,4 -4,-245.8 528,-245.8 528,4 -4,4"/>
<text text-anchor="middle" x="262" y="-8.2" font-family="sans-serif" font-size="14.00">dependencies</text>
<g id="clust13" class="cluster">
<title>cluster_VaultsModule</title>
<polygon fill="none" stroke="black" stroke-dasharray="1,5" points="162,-32.8 162,-160.8 324,-160.8 324,-32.8 162,-32.8"/>
</g>
<g id="clust18" class="cluster">
<title>cluster_VaultsModule_providers</title>
<polygon fill="none" stroke="black" points="170,-40.8 170,-92.8 316,-92.8 316,-40.8 170,-40.8"/>
</g>
<g id="clust1" class="cluster">
<title>cluster_AppModule</title>
<polygon fill="none" stroke="black" stroke-dasharray="1,5" points="8,-100.8 8,-225.8 154,-225.8 154,-100.8 8,-100.8"/>
</g>
<g id="clust6" class="cluster">
<title>cluster_AppModule_providers</title>
<polygon fill="none" stroke="black" points="16,-108.8 16,-160.8 146,-160.8 146,-108.8 16,-108.8"/>
</g>
<g id="clust7" class="cluster">
<title>cluster_CommonModule</title>
<polygon fill="none" stroke="black" stroke-dasharray="1,5" points="332,-32.8 332,-233.8 516,-233.8 516,-32.8 332,-32.8"/>
</g>
<g id="clust10" class="cluster">
<title>cluster_CommonModule_exports</title>
<polygon fill="none" stroke="black" points="359,-173.8 359,-225.8 489,-225.8 489,-173.8 359,-173.8"/>
</g>
<g id="clust12" class="cluster">
<title>cluster_CommonModule_providers</title>
<polygon fill="none" stroke="black" points="340,-40.8 340,-92.8 508,-92.8 508,-40.8 340,-40.8"/>
</g>
<!-- VaultsModule -->
<g id="node1" class="node">
<title>VaultsModule</title>
<polygon fill="#8dd3c7" stroke="black" points="278.1,-152.8 275.1,-156.8 254.1,-156.8 251.1,-152.8 181.9,-152.8 181.9,-116.8 278.1,-116.8 278.1,-152.8"/>
<text text-anchor="middle" x="230" y="-130.6" font-family="Times,serif" font-size="14.00">VaultsModule</text>
</g>
<!-- AppModule -->
<g id="node2" class="node">
<title>AppModule</title>
<polygon fill="#8dd3c7" stroke="black" points="133.66,-217.8 130.66,-221.8 109.66,-221.8 106.66,-217.8 50.34,-217.8 50.34,-181.8 133.66,-181.8 133.66,-217.8"/>
<text text-anchor="middle" x="92" y="-195.6" font-family="Times,serif" font-size="14.00">AppModule</text>
</g>
<!-- VaultsModule&#45;&gt;AppModule -->
<g id="edge1" class="edge">
<title>VaultsModule&#45;&gt;AppModule</title>
<path fill="none" stroke="black" d="M230,-152.91C230,-172.14 230,-199.8 230,-199.8 230,-199.8 143.78,-199.8 143.78,-199.8"/>
<polygon fill="black" stroke="black" points="143.78,-196.3 133.78,-199.8 143.78,-203.3 143.78,-196.3"/>
</g>
<!-- AppService -->
<g id="node3" class="node">
<title>AppService</title>
<ellipse fill="#fdb462" stroke="black" cx="81" cy="-134.8" rx="56.75" ry="18"/>
<text text-anchor="middle" x="81" y="-130.6" font-family="Times,serif" font-size="14.00">AppService</text>
</g>
<!-- AppService&#45;&gt;AppModule -->
<g id="edge2" class="edge">
<title>AppService&#45;&gt;AppModule</title>
<path fill="none" stroke="black" d="M92,-152.56C92,-152.56 92,-171.61 92,-171.61"/>
<polygon fill="black" stroke="black" points="88.5,-171.61 92,-181.61 95.5,-171.61 88.5,-171.61"/>
</g>
<!-- CommonService  -->
<g id="node4" class="node">
<title>CommonService </title>
<polygon fill="#fb8072" stroke="black" points="480.6,-217.8 367.4,-217.8 367.4,-181.8 480.6,-181.8 480.6,-217.8"/>
<text text-anchor="middle" x="424" y="-195.6" font-family="Times,serif" font-size="14.00">CommonService </text>
</g>
<!-- CommonModule -->
<g id="node5" class="node">
<title>CommonModule</title>
<polygon fill="#8dd3c7" stroke="black" points="479.67,-152.8 476.67,-156.8 455.67,-156.8 452.67,-152.8 368.33,-152.8 368.33,-116.8 479.67,-116.8 479.67,-152.8"/>
<text text-anchor="middle" x="424" y="-130.6" font-family="Times,serif" font-size="14.00">CommonModule</text>
</g>
<!-- CommonModule&#45;&gt;CommonService  -->
<g id="edge3" class="edge">
<title>CommonModule&#45;&gt;CommonService </title>
<path fill="none" stroke="black" stroke-dasharray="5,2" d="M424,-152.91C424,-152.91 424,-171.79 424,-171.79"/>
<polygon fill="black" stroke="black" points="420.5,-171.79 424,-181.79 427.5,-171.79 420.5,-171.79"/>
</g>
<!-- CommonService -->
<g id="node6" class="node">
<title>CommonService</title>
<ellipse fill="#fdb462" stroke="black" cx="424" cy="-66.8" rx="75.89" ry="18"/>
<text text-anchor="middle" x="424" y="-62.6" font-family="Times,serif" font-size="14.00">CommonService</text>
</g>
<!-- CommonService&#45;&gt;CommonModule -->
<g id="edge4" class="edge">
<title>CommonService&#45;&gt;CommonModule</title>
<path fill="none" stroke="black" d="M424,-85.02C424,-85.02 424,-106.53 424,-106.53"/>
<polygon fill="black" stroke="black" points="420.5,-106.53 424,-116.53 427.5,-106.53 420.5,-106.53"/>
</g>
<!-- VaultsService -->
<g id="node7" class="node">
<title>VaultsService</title>
<ellipse fill="#fdb462" stroke="black" cx="243" cy="-66.8" rx="65.41" ry="18"/>
<text text-anchor="middle" x="243" y="-62.6" font-family="Times,serif" font-size="14.00">VaultsService</text>
</g>
<!-- VaultsService&#45;&gt;VaultsModule -->
<g id="edge5" class="edge">
<title>VaultsService&#45;&gt;VaultsModule</title>
<path fill="none" stroke="black" d="M230,-84.67C230,-84.67 230,-106.34 230,-106.34"/>
<polygon fill="black" stroke="black" points="226.5,-106.34 230,-116.34 233.5,-106.34 226.5,-106.34"/>
</g>
</g>
</svg>
