<?xml version="1.0" encoding="UTF-8" standalone="no"?>
<!DOCTYPE svg PUBLIC "-//W3C//DTD SVG 1.1//EN"
 "http://www.w3.org/Graphics/SVG/1.1/DTD/svg11.dtd">
<!-- Generated by graphviz version 5.0.0 (20220707.1540)
 -->
<!-- Title: dependencies Pages: 1 -->
<svg width="499pt" height="258pt"
 viewBox="0.00 0.00 499.00 257.80" xmlns="http://www.w3.org/2000/svg" xmlns:xlink="http://www.w3.org/1999/xlink">
<g id="graph0" class="graph" transform="scale(1 1) rotate(0) translate(4 253.8)">
<title>dependencies</title>
<polygon fill="white" stroke="transparent" points="-4,4 -4,-253.8 495,-253.8 495,4 -4,4"/>
<text text-anchor="middle" x="245.5" y="-8.2" font-family="sans-serif" font-size="14.00">dependencies</text>
<g id="clust1" class="cluster">
<title>cluster_AppModule</title>
<polygon fill="none" stroke="black" stroke-dasharray="1,5" points="8,-108.8 8,-233.8 274,-233.8 274,-108.8 8,-108.8"/>
</g>
<g id="clust3" class="cluster">
<title>cluster_AppModule_imports</title>
<polygon fill="none" stroke="black" points="154,-116.8 154,-168.8 266,-168.8 266,-116.8 154,-116.8"/>
</g>
<g id="clust6" class="cluster">
<title>cluster_AppModule_providers</title>
<polygon fill="none" stroke="black" points="16,-116.8 16,-168.8 146,-168.8 146,-116.8 16,-116.8"/>
</g>
<g id="clust7" class="cluster">
<title>cluster_CommonModule</title>
<polygon fill="none" stroke="black" stroke-dasharray="1,5" points="299,-32.8 299,-241.8 483,-241.8 483,-32.8 299,-32.8"/>
</g>
<g id="clust10" class="cluster">
<title>cluster_CommonModule_exports</title>
<polygon fill="none" stroke="black" points="326,-181.8 326,-233.8 456,-233.8 456,-181.8 326,-181.8"/>
</g>
<g id="clust12" class="cluster">
<title>cluster_CommonModule_providers</title>
<polygon fill="none" stroke="black" points="307,-40.8 307,-92.8 475,-92.8 475,-40.8 307,-40.8"/>
</g>
<g id="clust13" class="cluster">
<title>cluster_VaultsModule</title>
<polygon fill="none" stroke="black" stroke-dasharray="1,5" points="129,-32.8 129,-100.8 291,-100.8 291,-32.8 129,-32.8"/>
</g>
<g id="clust18" class="cluster">
<title>cluster_VaultsModule_providers</title>
<polygon fill="none" stroke="black" points="137,-40.8 137,-92.8 283,-92.8 283,-40.8 137,-40.8"/>
</g>
<!-- VaultsModule -->
<g id="node1" class="node">
<title>VaultsModule</title>
<polygon fill="#8dd3c7" stroke="black" points="258.1,-160.8 255.1,-164.8 234.1,-164.8 231.1,-160.8 161.9,-160.8 161.9,-124.8 258.1,-124.8 258.1,-160.8"/>
<text text-anchor="middle" x="210" y="-138.6" font-family="Times,serif" font-size="14.00">VaultsModule</text>
</g>
<!-- AppModule -->
<g id="node2" class="node">
<title>AppModule</title>
<polygon fill="#8dd3c7" stroke="black" points="186.66,-225.8 183.66,-229.8 162.66,-229.8 159.66,-225.8 103.34,-225.8 103.34,-189.8 186.66,-189.8 186.66,-225.8"/>
<text text-anchor="middle" x="145" y="-203.6" font-family="Times,serif" font-size="14.00">AppModule</text>
</g>
<!-- VaultsModule&#45;&gt;AppModule -->
<g id="edge1" class="edge">
<title>VaultsModule&#45;&gt;AppModule</title>
<path fill="none" stroke="black" d="M174.39,-160.91C174.39,-160.91 174.39,-179.79 174.39,-179.79"/>
<polygon fill="black" stroke="black" points="170.89,-179.79 174.39,-189.79 177.89,-179.79 170.89,-179.79"/>
</g>
<!-- AppService -->
<g id="node3" class="node">
<title>AppService</title>
<ellipse fill="#fdb462" stroke="black" cx="81" cy="-142.8" rx="56.75" ry="18"/>
<text text-anchor="middle" x="81" y="-138.6" font-family="Times,serif" font-size="14.00">AppService</text>
</g>
<!-- AppService&#45;&gt;AppModule -->
<g id="edge2" class="edge">
<title>AppService&#45;&gt;AppModule</title>
<path fill="none" stroke="black" d="M120.4,-155.95C120.4,-155.95 120.4,-179.49 120.4,-179.49"/>
<polygon fill="black" stroke="black" points="116.9,-179.49 120.4,-189.49 123.9,-179.49 116.9,-179.49"/>
</g>
<!-- CommonService  -->
<g id="node4" class="node">
<title>CommonService </title>
<polygon fill="#fb8072" stroke="black" points="447.6,-225.8 334.4,-225.8 334.4,-189.8 447.6,-189.8 447.6,-225.8"/>
<text text-anchor="middle" x="391" y="-203.6" font-family="Times,serif" font-size="14.00">CommonService </text>
</g>
<!-- CommonModule -->
<g id="node5" class="node">
<title>CommonModule</title>
<polygon fill="#8dd3c7" stroke="black" points="446.67,-160.8 443.67,-164.8 422.67,-164.8 419.67,-160.8 335.33,-160.8 335.33,-124.8 446.67,-124.8 446.67,-160.8"/>
<text text-anchor="middle" x="391" y="-138.6" font-family="Times,serif" font-size="14.00">CommonModule</text>
</g>
<!-- CommonModule&#45;&gt;CommonService  -->
<g id="edge3" class="edge">
<title>CommonModule&#45;&gt;CommonService </title>
<path fill="none" stroke="black" stroke-dasharray="5,2" d="M391,-160.91C391,-160.91 391,-179.79 391,-179.79"/>
<polygon fill="black" stroke="black" points="387.5,-179.79 391,-189.79 394.5,-179.79 387.5,-179.79"/>
</g>
<!-- CommonService -->
<g id="node6" class="node">
<title>CommonService</title>
<ellipse fill="#fdb462" stroke="black" cx="391" cy="-66.8" rx="75.89" ry="18"/>
<text text-anchor="middle" x="391" y="-62.6" font-family="Times,serif" font-size="14.00">CommonService</text>
</g>
<!-- CommonService&#45;&gt;CommonModule -->
<g id="edge4" class="edge">
<title>CommonService&#45;&gt;CommonModule</title>
<path fill="none" stroke="black" d="M391,-84.81C391,-84.81 391,-114.65 391,-114.65"/>
<polygon fill="black" stroke="black" points="387.5,-114.65 391,-124.65 394.5,-114.65 387.5,-114.65"/>
</g>
<!-- VaultsService -->
<g id="node7" class="node">
<title>VaultsService</title>
<ellipse fill="#fdb462" stroke="black" cx="210" cy="-66.8" rx="65.41" ry="18"/>
<text text-anchor="middle" x="210" y="-62.6" font-family="Times,serif" font-size="14.00">VaultsService</text>
</g>
<!-- VaultsService&#45;&gt;VaultsModule -->
<g id="edge5" class="edge">
<title>VaultsService&#45;&gt;VaultsModule</title>
<path fill="none" stroke="black" d="M210,-84.81C210,-84.81 210,-114.65 210,-114.65"/>
<polygon fill="black" stroke="black" points="206.5,-114.65 210,-124.65 213.5,-114.65 206.5,-114.65"/>
</g>
</g>
</svg>
